<svg width="338" height="167" viewBox="0 0 338 167" fill="none" xmlns="http://www.w3.org/2000/svg">
<rect width="338" height="167" fill="none"/>
<g filter="url(#filter0_d_1_3)">
<path d="M123.32 80C123.133 79.2188 122.711 78.7969 122.055 78.7344H118.867V53.1406H119.664C121.914 53.1406 123.508 54.1406 124.445 56.1406C124.633 56.5781 124.836 57.0938 125.055 57.6875L126.508 61.9062H127.914L127.727 51.875H103.445L103.258 61.9062H104.664L106.117 57.6875C106.805 55.6875 107.695 54.375 108.789 53.75C109.539 53.3438 110.445 53.1406 111.508 53.1406H112.305V78.7344H107.852V80H123.32ZM139.68 61.0625V59.8438H128.852V61.0625H130.82L136.258 76.8125C136.914 78.6875 137.57 79.7656 138.227 80.0469C138.539 80.1719 138.93 80.2344 139.398 80.2344H140.945L145.305 66.6875L148.773 76.8125C149.398 78.5938 149.914 79.625 150.32 79.9062C150.664 80.125 151.148 80.2344 151.773 80.2344H153.32L159.18 62.4219C159.742 61.5781 160.336 61.125 160.961 61.0625C161.523 61.0625 161.82 60.8125 161.852 60.3125C161.883 60.1562 161.898 60 161.898 59.8438H155.242V61.0625H158.148L153.789 74.75L149.195 61.0625H152.008V59.8438H142.914L144.508 64.5312L141.414 74.7031L136.867 61.0625H139.68ZM173.805 60.3594C175.805 60.4219 176.82 62.125 176.852 65.4688C176.852 66.9375 176.414 67.8438 175.539 68.1875C174.914 68.4062 173.977 68.4844 172.727 68.4219L169.727 68.2812C169.945 63.0938 171.305 60.4531 173.805 60.3594ZM182.57 75.1719L181.445 74.7969C180.57 76.7031 179.195 78 177.32 78.6875C176.57 78.9688 175.805 79.1094 175.023 79.1094C172.523 79.1094 170.914 77.5156 170.195 74.3281C169.914 73.0156 169.758 71.4531 169.727 69.6406L174.039 69.7812C179.07 69.9375 181.992 69.1406 182.805 67.3906C182.992 66.9531 183.086 66.4688 183.086 65.9375C183.086 63.2812 181.727 61.3438 179.008 60.125C177.477 59.4688 175.742 59.1406 173.805 59.1406C170.273 59.1406 167.523 60.3438 165.555 62.75C164.055 64.625 163.305 66.9531 163.305 69.7344C163.305 74.2656 165.008 77.4219 168.414 79.2031C170.039 80.0469 171.883 80.4688 173.945 80.4688C177.602 80.4688 180.227 79.1875 181.82 76.625C182.133 76.1562 182.383 75.6719 182.57 75.1719ZM194.992 78.7812H193.82L193.867 66.7812C194.086 64.3125 194.992 62.6875 196.586 61.9062C197.023 61.6875 197.477 61.5781 197.945 61.5781C199.727 61.5781 200.773 62.625 201.086 64.7188C201.148 65.125 201.18 65.5469 201.18 65.9844V76.3438C201.18 77.6562 200.836 78.4219 200.148 78.6406C199.836 78.7344 199.461 78.7812 199.023 78.7812V80H209.852C209.852 79.2812 209.648 78.8906 209.242 78.8281C209.055 78.7969 208.867 78.7812 208.68 78.7812H207.133V66.7812C207.133 62.9062 205.758 60.4844 203.008 59.5156C202.258 59.2656 201.477 59.1406 200.664 59.1406C198.383 59.1406 196.445 60.0469 194.852 61.8594C194.383 62.3906 194.008 62.9375 193.727 63.5L193.492 59.8438H185.148V61.0625H187.867V76.3438C187.867 77.7812 187.195 78.5781 185.852 78.7344C185.633 78.7656 185.398 78.7812 185.148 78.7812V80H196.117C196.117 79.2812 195.914 78.8906 195.508 78.8281C195.352 78.7969 195.18 78.7812 194.992 78.7812ZM211.258 61.2969H214.492V73.0156C214.492 77.5469 216.367 80.0312 220.117 80.4688C220.492 80.5 220.867 80.5156 221.242 80.5156C223.648 80.5156 225.305 79.7344 226.211 78.1719C226.648 77.3906 226.992 76.3594 227.242 75.0781L225.977 74.8906C225.352 77.4219 224.43 78.8125 223.211 79.0625C223.023 79.0938 222.836 79.1094 222.648 79.1094C221.492 79.1094 220.789 78.2969 220.539 76.6719C220.477 76.2969 220.445 75.9062 220.445 75.5V61.2969H226.633V60.0781H220.445V54.6406L214.492 55.625V60.0781H211.258V61.2969ZM233.57 87.5C233.008 87.5 232.555 87.0781 232.211 86.2344C231.773 85.1406 231.383 84.4531 231.039 84.1719C230.633 83.8906 230.164 83.75 229.633 83.75C228.508 83.75 227.789 84.2344 227.477 85.2031C227.414 85.4531 227.383 85.6875 227.383 85.9062C227.383 86.9375 228.008 87.7812 229.258 88.4375C230.133 88.9062 231.148 89.1406 232.305 89.1406C234.93 89.1406 237.102 87.625 238.82 84.5938C239.477 83.5 240.102 82.1719 240.695 80.6094L247.727 62.375C248.258 61.5312 248.773 61.0781 249.273 61.0156C249.961 61.0156 250.336 60.7812 250.398 60.3125C250.43 60.1562 250.445 60 250.445 59.8438H243.18V61.0156H246.695L241.586 74.0938L235.914 61.0156H238.773V59.8438H227.758V61.0156H229.727L238.867 80.9844C237.367 84.7031 235.93 86.8125 234.555 87.3125C234.211 87.4375 233.883 87.5 233.57 87.5ZM121.586 117.172C121.555 118.359 121.82 119.016 122.383 119.141C122.602 119.203 122.883 119.234 123.227 119.234V110H121.68C120.523 114.344 118.477 116.922 115.539 117.734C114.727 117.953 113.82 118.062 112.82 118.062C108.852 118.062 106.367 115.812 105.367 111.312C104.992 109.531 104.805 107.328 104.805 104.703C104.836 96.1406 107.633 91.8438 113.195 91.8125C116.133 91.8125 118.305 93.0156 119.711 95.4219C120.367 96.5781 120.945 98.0625 121.445 99.875H123.086L122.945 90.6406C122.133 90.6406 121.648 90.8906 121.492 91.3906C121.43 91.7031 121.414 92.1094 121.445 92.6094C118.727 91.1406 115.727 90.4062 112.445 90.4062C107.195 90.4062 103.18 92.2344 100.398 95.8906C98.4297 98.5156 97.4453 101.531 97.4453 104.938C97.4453 108.969 98.7422 112.359 101.336 115.109C104.117 118.016 107.773 119.469 112.305 119.469C115.523 119.469 118.617 118.703 121.586 117.172ZM142.352 119.469C144.633 119.469 146.055 118.641 146.617 116.984C146.805 116.359 146.945 115.562 147.039 114.594L145.82 114.547C145.633 116.703 145.086 117.797 144.18 117.828C143.492 117.766 143.148 116.984 143.148 115.484V105.688C143.148 101.781 141.336 99.375 137.711 98.4688C136.773 98.25 135.758 98.1406 134.664 98.1406C130.414 98.1406 127.742 99.0625 126.648 100.906C126.367 101.375 126.227 101.875 126.227 102.406C126.227 103.625 126.805 104.391 127.961 104.703C128.242 104.797 128.539 104.844 128.852 104.844C130.195 104.844 131.102 104.188 131.57 102.875C131.633 102.688 131.727 102.375 131.852 101.938C132.195 100.688 132.633 99.9062 133.164 99.5938C133.508 99.4375 133.898 99.3594 134.336 99.3594C135.805 99.3594 136.695 100.25 137.008 102.031C137.133 102.688 137.195 103.469 137.195 104.375V107.422C129.164 107.578 125.133 109.703 125.102 113.797C125.102 116.578 126.32 118.359 128.758 119.141C129.477 119.359 130.273 119.469 131.148 119.469C133.805 119.469 135.758 118.469 137.008 116.469C137.258 116.062 137.461 115.641 137.617 115.203C138.273 117.891 139.852 119.312 142.352 119.469ZM133.586 117.453C132.023 117.391 131.227 116 131.195 113.281C131.195 111.219 132.039 109.875 133.727 109.25C134.633 108.969 135.789 108.797 137.195 108.734V113.281C136.602 115.469 135.648 116.812 134.336 117.312C134.055 117.406 133.805 117.453 133.586 117.453ZM158.055 117.781H156.883L156.93 105.781C157.148 103.312 158.055 101.688 159.648 100.906C160.086 100.688 160.539 100.578 161.008 100.578C162.789 100.578 163.836 101.625 164.148 103.719C164.211 104.125 164.242 104.547 164.242 104.984V115.344C164.242 116.656 163.898 117.422 163.211 117.641C162.898 117.734 162.523 117.781 162.086 117.781V119H172.914C172.914 118.281 172.711 117.891 172.305 117.828C172.117 117.797 171.93 117.781 171.742 117.781H170.195V105.781C170.195 101.906 168.82 99.4844 166.07 98.5156C165.32 98.2656 164.539 98.1406 163.727 98.1406C161.445 98.1406 159.508 99.0469 157.914 100.859C157.445 101.391 157.07 101.938 156.789 102.5L156.555 98.8438H148.211V100.062H150.93V115.344C150.93 116.781 150.258 117.578 148.914 117.734C148.695 117.766 148.461 117.781 148.211 117.781V119H159.18C159.18 118.281 158.977 117.891 158.57 117.828C158.414 117.797 158.242 117.781 158.055 117.781ZM191.289 119H199.68C199.68 118.281 199.492 117.875 199.117 117.781C198.961 117.75 198.773 117.734 198.555 117.734H196.398V88.5312H186.18V89.75H190.445V100.156C188.852 98.7812 186.945 98.0938 184.727 98.0938C181.758 98.0938 179.336 99.2344 177.461 101.516C175.836 103.578 175.023 106.172 175.023 109.297C175.023 113.172 176.289 116.031 178.82 117.875C180.258 118.938 181.852 119.469 183.602 119.469C186.508 119.469 188.664 118.234 190.07 115.766C190.289 115.391 190.477 115 190.633 114.594L191.289 119ZM181.445 108.734C181.445 104.172 182.43 101.297 184.398 100.109C184.961 99.7969 185.555 99.6406 186.18 99.6406C188.43 99.6406 189.82 101.375 190.352 104.844C190.477 105.781 190.539 106.781 190.539 107.844C190.539 112.531 189.555 115.516 187.586 116.797C187.023 117.141 186.414 117.312 185.758 117.312C183.57 117.312 182.211 115.531 181.68 111.969C181.523 111 181.445 109.922 181.445 108.734ZM213.039 117.781H210.695V88.5312H201.086V89.75H204.742V115.25C204.742 116.531 204.227 117.312 203.195 117.594C202.664 117.719 201.961 117.781 201.086 117.781V119H214.164C214.164 118.281 213.961 117.891 213.555 117.828C213.398 117.797 213.227 117.781 213.039 117.781ZM226.914 99.3594C228.914 99.4219 229.93 101.125 229.961 104.469C229.961 105.938 229.523 106.844 228.648 107.188C228.023 107.406 227.086 107.484 225.836 107.422L222.836 107.281C223.055 102.094 224.414 99.4531 226.914 99.3594ZM235.68 114.172L234.555 113.797C233.68 115.703 232.305 117 230.43 117.688C229.68 117.969 228.914 118.109 228.133 118.109C225.633 118.109 224.023 116.516 223.305 113.328C223.023 112.016 222.867 110.453 222.836 108.641L227.148 108.781C232.18 108.938 235.102 108.141 235.914 106.391C236.102 105.953 236.195 105.469 236.195 104.938C236.195 102.281 234.836 100.344 232.117 99.125C230.586 98.4688 228.852 98.1406 226.914 98.1406C223.383 98.1406 220.633 99.3438 218.664 101.75C217.164 103.625 216.414 105.953 216.414 108.734C216.414 113.266 218.117 116.422 221.523 118.203C223.148 119.047 224.992 119.469 227.055 119.469C230.711 119.469 233.336 118.188 234.93 115.625C235.242 115.156 235.492 114.672 235.68 114.172ZM246.508 118.156C248.602 118.156 249.805 117.406 250.117 115.906C250.148 115.688 250.164 115.484 250.164 115.297C250.164 113.703 249.164 112.375 247.164 111.312C246.727 111.062 246.023 110.734 245.055 110.328C242.711 109.297 241.164 108.344 240.414 107.469C239.602 106.531 239.195 105.422 239.195 104.141C239.195 101.484 240.648 99.6875 243.555 98.75C244.773 98.3438 246.133 98.1406 247.633 98.1406C250.07 98.1406 251.977 98.5781 253.352 99.4531C253.352 98.5156 253.633 98 254.195 97.9062C254.32 97.875 254.445 97.8594 254.57 97.8594V103.719H253.07C252.945 100.875 251.398 99.4375 248.43 99.4062C246.43 99.4062 245.195 100.062 244.727 101.375C244.633 101.688 244.586 102 244.586 102.312C244.586 103.656 245.523 104.797 247.398 105.734C247.773 105.953 248.398 106.25 249.273 106.625C251.711 107.719 253.336 108.719 254.148 109.625C255.086 110.688 255.555 111.953 255.555 113.422C255.555 116.141 254.148 117.969 251.336 118.906C250.18 119.281 248.883 119.469 247.445 119.469C244.695 119.469 242.383 118.984 240.508 118.016C240.508 118.828 240.305 119.297 239.898 119.422C239.711 119.453 239.492 119.469 239.242 119.469V112.344H240.836C240.898 116.188 242.789 118.125 246.508 118.156Z" fill="#114E4E"/>
</g>
<path d="M124.32 80C124.133 79.2188 123.711 78.7969 123.055 78.7344H119.867V53.1406H120.664C122.914 53.1406 124.508 54.1406 125.445 56.1406C125.633 56.5781 125.836 57.0938 126.055 57.6875L127.508 61.9062H128.914L128.727 51.875H104.445L104.258 61.9062H105.664L107.117 57.6875C107.805 55.6875 108.695 54.375 109.789 53.75C110.539 53.3438 111.445 53.1406 112.508 53.1406H113.305V78.7344H108.852V80H124.32ZM140.68 61.0625V59.8438H129.852V61.0625H131.82L137.258 76.8125C137.914 78.6875 138.57 79.7656 139.227 80.0469C139.539 80.1719 139.93 80.2344 140.398 80.2344H141.945L146.305 66.6875L149.773 76.8125C150.398 78.5938 150.914 79.625 151.32 79.9062C151.664 80.125 152.148 80.2344 152.773 80.2344H154.32L160.18 62.4219C160.742 61.5781 161.336 61.125 161.961 61.0625C162.523 61.0625 162.82 60.8125 162.852 60.3125C162.883 60.1562 162.898 60 162.898 59.8438H156.242V61.0625H159.148L154.789 74.75L150.195 61.0625H153.008V59.8438H143.914L145.508 64.5312L142.414 74.7031L137.867 61.0625H140.68ZM174.805 60.3594C176.805 60.4219 177.82 62.125 177.852 65.4688C177.852 66.9375 177.414 67.8438 176.539 68.1875C175.914 68.4062 174.977 68.4844 173.727 68.4219L170.727 68.2812C170.945 63.0938 172.305 60.4531 174.805 60.3594ZM183.57 75.1719L182.445 74.7969C181.57 76.7031 180.195 78 178.32 78.6875C177.57 78.9688 176.805 79.1094 176.023 79.1094C173.523 79.1094 171.914 77.5156 171.195 74.3281C170.914 73.0156 170.758 71.4531 170.727 69.6406L175.039 69.7812C180.07 69.9375 182.992 69.1406 183.805 67.3906C183.992 66.9531 184.086 66.4688 184.086 65.9375C184.086 63.2812 182.727 61.3438 180.008 60.125C178.477 59.4688 176.742 59.1406 174.805 59.1406C171.273 59.1406 168.523 60.3438 166.555 62.75C165.055 64.625 164.305 66.9531 164.305 69.7344C164.305 74.2656 166.008 77.4219 169.414 79.2031C171.039 80.0469 172.883 80.4688 174.945 80.4688C178.602 80.4688 181.227 79.1875 182.82 76.625C183.133 76.1562 183.383 75.6719 183.57 75.1719ZM195.992 78.7812H194.82L194.867 66.7812C195.086 64.3125 195.992 62.6875 197.586 61.9062C198.023 61.6875 198.477 61.5781 198.945 61.5781C200.727 61.5781 201.773 62.625 202.086 64.7188C202.148 65.125 202.18 65.5469 202.18 65.9844V76.3438C202.18 77.6562 201.836 78.4219 201.148 78.6406C200.836 78.7344 200.461 78.7812 200.023 78.7812V80H210.852C210.852 79.2812 210.648 78.8906 210.242 78.8281C210.055 78.7969 209.867 78.7812 209.68 78.7812H208.133V66.7812C208.133 62.9062 206.758 60.4844 204.008 59.5156C203.258 59.2656 202.477 59.1406 201.664 59.1406C199.383 59.1406 197.445 60.0469 195.852 61.8594C195.383 62.3906 195.008 62.9375 194.727 63.5L194.492 59.8438H186.148V61.0625H188.867V76.3438C188.867 77.7812 188.195 78.5781 186.852 78.7344C186.633 78.7656 186.398 78.7812 186.148 78.7812V80H197.117C197.117 79.2812 196.914 78.8906 196.508 78.8281C196.352 78.7969 196.18 78.7812 195.992 78.7812ZM212.258 61.2969H215.492V73.0156C215.492 77.5469 217.367 80.0312 221.117 80.4688C221.492 80.5 221.867 80.5156 222.242 80.5156C224.648 80.5156 226.305 79.7344 227.211 78.1719C227.648 77.3906 227.992 76.3594 228.242 75.0781L226.977 74.8906C226.352 77.4219 225.43 78.8125 224.211 79.0625C224.023 79.0938 223.836 79.1094 223.648 79.1094C222.492 79.1094 221.789 78.2969 221.539 76.6719C221.477 76.2969 221.445 75.9062 221.445 75.5V61.2969H227.633V60.0781H221.445V54.6406L215.492 55.625V60.0781H212.258V61.2969ZM234.57 87.5C234.008 87.5 233.555 87.0781 233.211 86.2344C232.773 85.1406 232.383 84.4531 232.039 84.1719C231.633 83.8906 231.164 83.75 230.633 83.75C229.508 83.75 228.789 84.2344 228.477 85.2031C228.414 85.4531 228.383 85.6875 228.383 85.9062C228.383 86.9375 229.008 87.7812 230.258 88.4375C231.133 88.9062 232.148 89.1406 233.305 89.1406C235.93 89.1406 238.102 87.625 239.82 84.5938C240.477 83.5 241.102 82.1719 241.695 80.6094L248.727 62.375C249.258 61.5312 249.773 61.0781 250.273 61.0156C250.961 61.0156 251.336 60.7812 251.398 60.3125C251.43 60.1562 251.445 60 251.445 59.8438H244.18V61.0156H247.695L242.586 74.0938L236.914 61.0156H239.773V59.8438H228.758V61.0156H230.727L239.867 80.9844C238.367 84.7031 236.93 86.8125 235.555 87.3125C235.211 87.4375 234.883 87.5 234.57 87.5ZM122.586 117.172C122.555 118.359 122.82 119.016 123.383 119.141C123.602 119.203 123.883 119.234 124.227 119.234V110H122.68C121.523 114.344 119.477 116.922 116.539 117.734C115.727 117.953 114.82 118.062 113.82 118.062C109.852 118.062 107.367 115.812 106.367 111.312C105.992 109.531 105.805 107.328 105.805 104.703C105.836 96.1406 108.633 91.8438 114.195 91.8125C117.133 91.8125 119.305 93.0156 120.711 95.4219C121.367 96.5781 121.945 98.0625 122.445 99.875H124.086L123.945 90.6406C123.133 90.6406 122.648 90.8906 122.492 91.3906C122.43 91.7031 122.414 92.1094 122.445 92.6094C119.727 91.1406 116.727 90.4062 113.445 90.4062C108.195 90.4062 104.18 92.2344 101.398 95.8906C99.4297 98.5156 98.4453 101.531 98.4453 104.938C98.4453 108.969 99.7422 112.359 102.336 115.109C105.117 118.016 108.773 119.469 113.305 119.469C116.523 119.469 119.617 118.703 122.586 117.172ZM143.352 119.469C145.633 119.469 147.055 118.641 147.617 116.984C147.805 116.359 147.945 115.562 148.039 114.594L146.82 114.547C146.633 116.703 146.086 117.797 145.18 117.828C144.492 117.766 144.148 116.984 144.148 115.484V105.688C144.148 101.781 142.336 99.375 138.711 98.4688C137.773 98.25 136.758 98.1406 135.664 98.1406C131.414 98.1406 128.742 99.0625 127.648 100.906C127.367 101.375 127.227 101.875 127.227 102.406C127.227 103.625 127.805 104.391 128.961 104.703C129.242 104.797 129.539 104.844 129.852 104.844C131.195 104.844 132.102 104.188 132.57 102.875C132.633 102.688 132.727 102.375 132.852 101.938C133.195 100.688 133.633 99.9062 134.164 99.5938C134.508 99.4375 134.898 99.3594 135.336 99.3594C136.805 99.3594 137.695 100.25 138.008 102.031C138.133 102.688 138.195 103.469 138.195 104.375V107.422C130.164 107.578 126.133 109.703 126.102 113.797C126.102 116.578 127.32 118.359 129.758 119.141C130.477 119.359 131.273 119.469 132.148 119.469C134.805 119.469 136.758 118.469 138.008 116.469C138.258 116.062 138.461 115.641 138.617 115.203C139.273 117.891 140.852 119.312 143.352 119.469ZM134.586 117.453C133.023 117.391 132.227 116 132.195 113.281C132.195 111.219 133.039 109.875 134.727 109.25C135.633 108.969 136.789 108.797 138.195 108.734V113.281C137.602 115.469 136.648 116.812 135.336 117.312C135.055 117.406 134.805 117.453 134.586 117.453ZM159.055 117.781H157.883L157.93 105.781C158.148 103.312 159.055 101.688 160.648 100.906C161.086 100.688 161.539 100.578 162.008 100.578C163.789 100.578 164.836 101.625 165.148 103.719C165.211 104.125 165.242 104.547 165.242 104.984V115.344C165.242 116.656 164.898 117.422 164.211 117.641C163.898 117.734 163.523 117.781 163.086 117.781V119H173.914C173.914 118.281 173.711 117.891 173.305 117.828C173.117 117.797 172.93 117.781 172.742 117.781H171.195V105.781C171.195 101.906 169.82 99.4844 167.07 98.5156C166.32 98.2656 165.539 98.1406 164.727 98.1406C162.445 98.1406 160.508 99.0469 158.914 100.859C158.445 101.391 158.07 101.938 157.789 102.5L157.555 98.8438H149.211V100.062H151.93V115.344C151.93 116.781 151.258 117.578 149.914 117.734C149.695 117.766 149.461 117.781 149.211 117.781V119H160.18C160.18 118.281 159.977 117.891 159.57 117.828C159.414 117.797 159.242 117.781 159.055 117.781ZM192.289 119H200.68C200.68 118.281 200.492 117.875 200.117 117.781C199.961 117.75 199.773 117.734 199.555 117.734H197.398V88.5312H187.18V89.75H191.445V100.156C189.852 98.7812 187.945 98.0938 185.727 98.0938C182.758 98.0938 180.336 99.2344 178.461 101.516C176.836 103.578 176.023 106.172 176.023 109.297C176.023 113.172 177.289 116.031 179.82 117.875C181.258 118.938 182.852 119.469 184.602 119.469C187.508 119.469 189.664 118.234 191.07 115.766C191.289 115.391 191.477 115 191.633 114.594L192.289 119ZM182.445 108.734C182.445 104.172 183.43 101.297 185.398 100.109C185.961 99.7969 186.555 99.6406 187.18 99.6406C189.43 99.6406 190.82 101.375 191.352 104.844C191.477 105.781 191.539 106.781 191.539 107.844C191.539 112.531 190.555 115.516 188.586 116.797C188.023 117.141 187.414 117.312 186.758 117.312C184.57 117.312 183.211 115.531 182.68 111.969C182.523 111 182.445 109.922 182.445 108.734ZM214.039 117.781H211.695V88.5312H202.086V89.75H205.742V115.25C205.742 116.531 205.227 117.312 204.195 117.594C203.664 117.719 202.961 117.781 202.086 117.781V119H215.164C215.164 118.281 214.961 117.891 214.555 117.828C214.398 117.797 214.227 117.781 214.039 117.781ZM227.914 99.3594C229.914 99.4219 230.93 101.125 230.961 104.469C230.961 105.938 230.523 106.844 229.648 107.188C229.023 107.406 228.086 107.484 226.836 107.422L223.836 107.281C224.055 102.094 225.414 99.4531 227.914 99.3594ZM236.68 114.172L235.555 113.797C234.68 115.703 233.305 117 231.43 117.688C230.68 117.969 229.914 118.109 229.133 118.109C226.633 118.109 225.023 116.516 224.305 113.328C224.023 112.016 223.867 110.453 223.836 108.641L228.148 108.781C233.18 108.938 236.102 108.141 236.914 106.391C237.102 105.953 237.195 105.469 237.195 104.938C237.195 102.281 235.836 100.344 233.117 99.125C231.586 98.4688 229.852 98.1406 227.914 98.1406C224.383 98.1406 221.633 99.3438 219.664 101.75C218.164 103.625 217.414 105.953 217.414 108.734C217.414 113.266 219.117 116.422 222.523 118.203C224.148 119.047 225.992 119.469 228.055 119.469C231.711 119.469 234.336 118.188 235.93 115.625C236.242 115.156 236.492 114.672 236.68 114.172ZM247.508 118.156C249.602 118.156 250.805 117.406 251.117 115.906C251.148 115.688 251.164 115.484 251.164 115.297C251.164 113.703 250.164 112.375 248.164 111.312C247.727 111.062 247.023 110.734 246.055 110.328C243.711 109.297 242.164 108.344 241.414 107.469C240.602 106.531 240.195 105.422 240.195 104.141C240.195 101.484 241.648 99.6875 244.555 98.75C245.773 98.3438 247.133 98.1406 248.633 98.1406C251.07 98.1406 252.977 98.5781 254.352 99.4531C254.352 98.5156 254.633 98 255.195 97.9062C255.32 97.875 255.445 97.8594 255.57 97.8594V103.719H254.07C253.945 100.875 252.398 99.4375 249.43 99.4062C247.43 99.4062 246.195 100.062 245.727 101.375C245.633 101.688 245.586 102 245.586 102.312C245.586 103.656 246.523 104.797 248.398 105.734C248.773 105.953 249.398 106.25 250.273 106.625C252.711 107.719 254.336 108.719 255.148 109.625C256.086 110.688 256.555 111.953 256.555 113.422C256.555 116.141 255.148 117.969 252.336 118.906C251.18 119.281 249.883 119.469 248.445 119.469C245.695 119.469 243.383 118.984 241.508 118.016C241.508 118.828 241.305 119.297 240.898 119.422C240.711 119.453 240.492 119.469 240.242 119.469V112.344H241.836C241.898 116.188 243.789 118.125 247.508 118.156Z" fill="#114E4E"/>
<g filter="url(#filter1_d_1_3)">
<path d="M65.9967 75.8271L61.3853 111.493C61.0731 113.908 66.0542 116.665 72.5226 117.653C78.9911 118.641 84.4784 117.483 84.7906 115.068L89.402 79.4026L65.9967 75.8271Z" fill="#438792"/>
</g>
<path d="M77.2001 81.2625C83.7232 82.259 89.2631 81.1184 89.5739 78.7149C89.8846 76.3113 84.8485 73.5551 78.3255 72.5586C71.8024 71.5621 66.2624 72.7027 65.9517 75.1062C65.6409 77.5097 70.677 80.266 77.2001 81.2625Z" fill="#D6E5E5"/>
<path d="M77.8462 77.5835C76.7647 77.4182 75.97 76.6492 76.0713 75.8658L78.1803 59.5541C78.2816 58.7707 79.2403 58.2696 80.322 58.4348C81.4036 58.6 82.1982 59.3691 82.0969 60.1524L79.9879 76.4642C79.8866 77.2475 78.9276 77.7487 77.8462 77.5835Z" fill="#EBF2F2"/>
<path d="M72.7202 63.7667C72.7202 63.7667 72.7064 63.7049 72.695 63.5916C72.6809 63.4778 72.6728 63.3134 72.6704 63.1054L72.6732 62.9421C72.6839 62.8558 72.7005 62.7424 72.7184 62.6374C72.7536 62.4212 72.7984 62.188 72.8544 61.9405C72.8811 61.8165 72.9137 61.6896 72.9464 61.5588L73.0472 61.2376C73.1197 61.0193 73.2007 60.7911 73.2919 60.5556C73.3859 60.329 73.492 60.1109 73.6069 59.8792C73.665 59.7651 73.723 59.6464 73.7867 59.5324C73.8495 59.426 73.9127 59.3179 73.9809 59.21C74.0479 59.1017 74.1161 58.9921 74.1887 58.8829L74.2969 58.7177C74.3332 58.6649 74.3704 58.6177 74.4075 58.567C74.5583 58.3626 74.7147 58.1616 74.8766 57.964C75.0345 57.7796 75.2006 57.5982 75.3741 57.4153L75.5046 57.2789C75.5458 57.2368 75.589 57.1956 75.6327 57.1542C75.7201 57.0716 75.8048 56.9872 75.8959 56.9049L76.1682 56.6575L76.4368 56.4271C76.614 56.2745 76.8099 56.1146 76.9832 55.9709C77.1638 55.8246 77.3453 55.6768 77.5337 55.5306C77.7106 55.3859 77.8935 55.2444 78.0761 55.1007L79.1658 54.2511L79.6905 53.8283C79.8709 53.6901 80.0508 53.553 80.211 53.4125L80.7113 53.0051C80.7915 52.9381 80.8755 52.8727 80.9584 52.808C81.0418 52.7436 81.1147 52.6769 81.191 52.6127C81.4767 52.3705 81.7663 52.1318 82.0598 51.8967C82.3213 51.6769 82.5527 51.4794 82.7546 51.3167C82.9552 51.1536 83.1266 51.0246 83.2372 50.9351L83.4188 50.7989L83.4751 50.7566C83.6125 50.6536 83.7766 50.5801 83.9555 50.5414C84.1343 50.5028 84.3235 50.5 84.5091 50.5332C84.6947 50.5665 84.872 50.6349 85.0283 50.7335C85.1845 50.8322 85.3157 50.9586 85.4122 51.1035L85.5423 51.2987C85.6194 51.4253 85.7416 51.6133 85.8794 51.8538C86.0159 52.094 86.18 52.388 86.342 52.7278C86.515 53.1083 86.6742 53.4927 86.8195 53.8806C86.9858 54.3085 87.1065 54.7705 87.2443 55.2705C87.3102 55.5198 87.3603 55.7742 87.4126 56.0373L87.5463 56.8433C87.5872 57.1175 87.6023 57.39 87.63 57.6728L87.6649 58.0992C87.6732 58.2416 87.6752 58.3799 87.6802 58.5222C87.6849 58.8038 87.6911 59.0919 87.6857 59.3768C87.68 59.6557 87.6669 59.9349 87.6527 60.2153C87.6362 60.5003 87.6175 60.7592 87.5932 61.0287L87.556 61.4283L87.5166 61.804C87.504 61.9286 87.4854 62.0503 87.4702 62.1727L87.4222 62.5234C87.3932 62.7415 87.3586 62.9587 87.3185 63.1749C87.2927 63.3643 87.2608 63.5526 87.2229 63.7398L87.1967 63.874L87.1771 63.9935C87.1648 64.0712 87.1505 64.1485 87.1342 64.2254C87.1199 64.3015 87.1019 64.3746 87.0844 64.4469C87.0743 64.5102 87.0629 64.5733 87.0503 64.6361C87.0278 64.757 86.9917 64.8763 86.9662 64.9791C86.9473 65.0761 86.9227 65.1666 86.8947 65.2513C86.8793 65.2929 86.8651 65.3353 86.8491 65.3728C86.8444 65.3884 86.8407 65.4037 86.8324 65.4173C86.8181 65.4452 86.7971 65.4697 86.7715 65.4918C86.7597 65.5061 86.7452 65.5066 86.7307 65.5301L86.6789 65.6844C86.6073 65.8788 86.545 66.0304 86.4938 66.132C86.4453 66.2342 86.4119 66.2874 86.4119 66.2874L86.4107 66.2892C84.5162 69.293 80.0756 70.2321 76.4925 68.3869C74.4649 67.3431 73.1397 65.6006 72.7202 63.7667Z" fill="#FFD366"/>
<defs>
<filter id="filter0_d_1_3" x="93.4453" y="51.875" width="166.109" height="75.5938" filterUnits="userSpaceOnUse" color-interpolation-filters="sRGB">
<feFlood flood-opacity="0" result="BackgroundImageFix"/>
<feColorMatrix in="SourceAlpha" type="matrix" values="0 0 0 0 0 0 0 0 0 0 0 0 0 0 0 0 0 0 127 0" result="hardAlpha"/>
<feOffset dy="4"/>
<feGaussianBlur stdDeviation="2"/>
<feComposite in2="hardAlpha" operator="out"/>
<feColorMatrix type="matrix" values="0 0 0 0 0 0 0 0 0 0 0 0 0 0 0 0 0 0 0.25 0"/>
<feBlend mode="normal" in2="BackgroundImageFix" result="effect1_dropShadow_1_3"/>
<feBlend mode="normal" in="SourceGraphic" in2="effect1_dropShadow_1_3" result="shape"/>
</filter>
<filter id="filter1_d_1_3" x="57.3714" y="75.8271" width="36.0306" height="50.1788" filterUnits="userSpaceOnUse" color-interpolation-filters="sRGB">
<feFlood flood-opacity="0" result="BackgroundImageFix"/>
<feColorMatrix in="SourceAlpha" type="matrix" values="0 0 0 0 0 0 0 0 0 0 0 0 0 0 0 0 0 0 127 0" result="hardAlpha"/>
<feOffset dy="4"/>
<feGaussianBlur stdDeviation="2"/>
<feComposite in2="hardAlpha" operator="out"/>
<feColorMatrix type="matrix" values="0 0 0 0 0 0 0 0 0 0 0 0 0 0 0 0 0 0 0.25 0"/>
<feBlend mode="normal" in2="BackgroundImageFix" result="effect1_dropShadow_1_3"/>
<feBlend mode="normal" in="SourceGraphic" in2="effect1_dropShadow_1_3" result="shape"/>
</filter>
</defs>
</svg>
